#N canvas 757 231 450 520 10;
#X obj 202 69 tgl 15 0 empty empty empty 17 7 0 10 -262144 -1 -1 0
1;
#X obj 209 131 metro 100;
#X obj 216 176 f 0;
#X obj 266 177 + 1;
#X obj 210 218 mod 2;
#X obj 207 258 sig~;
#X obj 199 305 *~;
#X obj 277 284 osc~ 2500;
#X obj 224 333 *~ 0.2;
#X obj 217 392 dac~;
#X connect 0 0 1 0;
#X connect 1 0 2 0;
#X connect 2 0 3 0;
#X connect 2 0 4 0;
#X connect 3 0 2 1;
#X connect 4 0 5 0;
#X connect 5 0 6 0;
#X connect 6 0 8 0;
#X connect 7 0 6 1;
#X connect 8 0 9 0;
#X connect 8 0 9 1;
